<svg width="1107" height="267" viewBox="0 0 1107 267" fill="none" xmlns="http://www.w3.org/2000/svg">
<path d="M115.4 200.2C118.6 208.467 123.2 212.733 129.2 213V217C123.867 216.6 116.733 216.4 107.8 216.4C96.3333 216.4 87.8 216.6 82.2 217V213C87.2667 212.733 90.8667 212.133 93 211.2C95.2667 210.133 96.4 208.267 96.4 205.6C96.4 203.333 95.6 200.2 94 196.2L81.8 163.4H33.4L25.2 184.6C22.5333 191.8 21.2 197.267 21.2 201C21.2 205.133 22.6 208.133 25.4 210C28.3333 211.867 32.7333 212.867 38.6 213V217C31 216.6 23.3333 216.4 15.6 216.4C9.6 216.4 4.6 216.6 0.6 217V213C7.26667 211.4 12.5333 205.6 16.4 195.6L63.4 74.4H66.6L115.4 200.2ZM80.2 159.4L57.8 99.6L35 159.4H80.2ZM193.177 111.2C204.51 111.2 213.643 115.867 220.577 125.2C227.643 134.533 231.177 148 231.177 165.6C231.177 177.2 229.177 187.067 225.177 195.2C221.177 203.333 215.777 209.467 208.977 213.6C202.31 217.733 194.843 219.8 186.577 219.8C181.643 219.8 176.843 218.8 172.177 216.8C167.643 214.8 163.643 211.933 160.177 208.2L145.977 220.2L142.577 218.8C143.51 215.467 143.977 211.6 143.977 207.2V84.4C143.977 78.2667 142.843 73.8 140.577 71C138.31 68.2 134.377 66.8 128.777 66.8V62.6C133.043 63 137.177 63.2 141.177 63.2C149.577 63.2 156.51 62.2667 161.977 60.4V132.6C164.91 125.8 169.11 120.533 174.577 116.8C180.177 113.067 186.377 111.2 193.177 111.2ZM184.977 215.2C193.91 215.2 200.577 211.2 204.977 203.2C209.51 195.067 211.777 182.533 211.777 165.6C211.777 149.333 209.777 137.2 205.777 129.2C201.777 121.2 195.643 117.2 187.377 117.2C181.777 117.2 176.643 119.4 171.977 123.8C167.31 128.067 163.977 134.133 161.977 142V205.4C165.043 208.6 168.577 211.067 172.577 212.8C176.577 214.4 180.71 215.2 184.977 215.2ZM269.272 64C272.739 64 275.739 65.2667 278.272 67.8C280.805 70.3333 282.072 73.3333 282.072 76.8C282.072 80.2667 280.805 83.2667 278.272 85.8C275.739 88.3333 272.739 89.6 269.272 89.6C265.805 89.6 262.805 88.3333 260.272 85.8C257.739 83.2667 256.472 80.2667 256.472 76.8C256.472 73.3333 257.739 70.3333 260.272 67.8C262.805 65.2667 265.805 64 269.272 64ZM279.672 198.4C279.672 203.867 280.805 207.667 283.072 209.8C285.339 211.8 289.272 212.8 294.872 212.8V217C282.605 216.467 274.539 216.2 270.672 216.2C266.805 216.2 258.739 216.467 246.472 217V212.8C252.072 212.8 256.005 211.8 258.272 209.8C260.539 207.667 261.672 203.867 261.672 198.4V135.8C261.672 129.667 260.539 125.2 258.272 122.4C256.005 119.6 252.072 118.2 246.472 118.2V114C250.739 114.4 254.872 114.6 258.872 114.6C267.272 114.6 274.205 113.667 279.672 111.8V198.4ZM393.466 132C391.066 132 388.999 131.2 387.266 129.6C385.666 128 384.866 125.667 384.866 122.6C384.866 119.933 385.532 116.867 386.866 113.4C383.399 114.867 380.666 116.533 378.666 118.4C376.666 120.133 374.866 122.333 373.266 125C376.332 129.667 377.866 135.6 377.866 142.8C377.866 153.333 374.666 161.267 368.266 166.6C361.866 171.8 353.399 174.4 342.866 174.4H342.666C338.266 176.933 334.932 179.267 332.666 181.4C330.399 183.533 329.266 185.933 329.266 188.6C329.266 192.867 332.466 195 338.866 195H363.866C372.932 195 380.399 197 386.266 201C392.266 204.867 395.266 210.733 395.266 218.6C395.266 225 393.199 230.933 389.066 236.4C384.932 241.867 378.866 246.267 370.866 249.6C362.866 252.933 353.199 254.6 341.866 254.6C330.266 254.6 320.532 252.8 312.666 249.2C304.932 245.733 301.066 240.533 301.066 233.6C301.066 229.067 302.866 225.133 306.466 221.8C310.199 218.467 315.332 215.867 321.866 214L323.066 217.2C320.132 218.133 317.799 220 316.066 222.8C314.332 225.6 313.466 228.733 313.466 232.2C313.466 238.333 316.199 243 321.666 246.2C327.266 249.533 334.732 251.2 344.066 251.2C354.332 251.2 363.132 249.2 370.466 245.2C377.799 241.333 381.466 235.267 381.466 227C381.466 222.2 379.732 218.467 376.266 215.8C372.932 213.133 366.932 211.8 358.266 211.8H343.466C335.599 211.8 329.266 210.8 324.466 208.8C319.799 206.8 317.466 202.8 317.466 196.8C317.466 192.667 318.932 188.733 321.866 185C324.932 181.267 329.932 177.6 336.866 174C328.066 173.067 320.999 170 315.666 164.8C310.466 159.6 307.866 152.267 307.866 142.8C307.866 132.267 311.066 124.4 317.466 119.2C323.866 113.867 332.332 111.2 342.866 111.2C355.399 111.2 364.666 114.667 370.666 121.6C373.199 118 376.399 115.067 380.266 112.8C384.132 110.4 387.999 109.2 391.866 109.2C395.332 109.2 398.132 110.2 400.266 112.2C402.399 114.2 403.466 117.067 403.466 120.8C403.466 124.533 402.399 127.333 400.266 129.2C398.266 131.067 395.999 132 393.466 132ZM342.866 170.8C348.199 170.8 352.199 168.733 354.866 164.6C357.666 160.333 359.066 153.067 359.066 142.8C359.066 132.533 357.666 125.333 354.866 121.2C352.199 116.933 348.199 114.8 342.866 114.8C337.532 114.8 333.466 116.933 330.666 121.2C327.999 125.333 326.666 132.533 326.666 142.8C326.666 153.067 327.999 160.333 330.666 164.6C333.466 168.733 337.532 170.8 342.866 170.8ZM435.577 218.4C427.177 218.4 420.91 216.333 416.777 212.2C412.777 207.933 410.777 202.067 410.777 194.6C410.777 188.6 412.377 183.667 415.577 179.8C418.91 175.933 422.777 172.867 427.177 170.6C431.71 168.333 437.643 165.933 444.977 163.4C452.443 160.867 457.977 158.533 461.577 156.4C465.177 154.267 466.977 151.4 466.977 147.8V135.4C466.977 127.667 465.31 122.4 461.977 119.6C458.777 116.667 454.243 115.2 448.377 115.2C439.043 115.2 432.443 117.6 428.577 122.4C431.243 123.067 433.443 124.467 435.177 126.6C437.043 128.733 437.977 131.4 437.977 134.6C437.977 137.933 436.91 140.6 434.777 142.6C432.643 144.467 429.91 145.4 426.577 145.4C422.843 145.4 420.043 144.267 418.177 142C416.31 139.6 415.377 136.733 415.377 133.4C415.377 130.2 416.11 127.533 417.577 125.4C419.177 123.267 421.51 121.133 424.577 119C427.777 116.733 431.843 114.867 436.777 113.4C441.71 111.933 447.11 111.2 452.977 111.2C463.377 111.2 471.243 113.667 476.577 118.6C479.91 121.667 482.11 125.4 483.177 129.8C484.377 134.067 484.977 139.733 484.977 146.8V202.4C484.977 205.733 485.443 208.133 486.377 209.6C487.31 211.067 488.91 211.8 491.177 211.8C492.777 211.8 494.243 211.467 495.577 210.8C497.043 210 498.577 208.933 500.177 207.6L502.377 211C498.91 213.667 495.91 215.6 493.377 216.8C490.977 217.867 487.91 218.4 484.177 218.4C477.777 218.4 473.31 216.8 470.777 213.6C468.243 210.4 466.977 206.067 466.977 200.6C462.977 207.267 458.377 211.933 453.177 214.6C447.977 217.133 442.11 218.4 435.577 218.4ZM444.377 210.4C453.177 210.4 460.71 205.333 466.977 195.2V156C465.777 157.867 464.11 159.4 461.977 160.6C459.843 161.8 456.577 163.4 452.177 165.4C447.11 167.533 442.977 169.6 439.777 171.6C436.71 173.467 434.043 176.067 431.777 179.4C429.51 182.733 428.377 187 428.377 192.2C428.377 198.2 429.843 202.733 432.777 205.8C435.71 208.867 439.577 210.4 444.377 210.4ZM531.186 64C534.653 64 537.653 65.2667 540.186 67.8C542.719 70.3333 543.986 73.3333 543.986 76.8C543.986 80.2667 542.719 83.2667 540.186 85.8C537.653 88.3333 534.653 89.6 531.186 89.6C527.719 89.6 524.719 88.3333 522.186 85.8C519.653 83.2667 518.386 80.2667 518.386 76.8C518.386 73.3333 519.653 70.3333 522.186 67.8C524.719 65.2667 527.719 64 531.186 64ZM541.586 198.4C541.586 203.867 542.719 207.667 544.986 209.8C547.253 211.8 551.186 212.8 556.786 212.8V217C544.519 216.467 536.453 216.2 532.586 216.2C528.719 216.2 520.653 216.467 508.386 217V212.8C513.986 212.8 517.919 211.8 520.186 209.8C522.453 207.667 523.586 203.867 523.586 198.4V135.8C523.586 129.667 522.453 125.2 520.186 122.4C517.919 119.6 513.986 118.2 508.386 118.2V114C512.653 114.4 516.786 114.6 520.786 114.6C529.186 114.6 536.119 113.667 541.586 111.8V198.4ZM598.78 198.4C598.78 203.867 599.913 207.667 602.18 209.8C604.446 211.8 608.38 212.8 613.98 212.8V217C601.713 216.467 593.646 216.2 589.78 216.2C585.913 216.2 577.846 216.467 565.58 217V212.8C571.18 212.8 575.113 211.8 577.38 209.8C579.646 207.667 580.78 203.867 580.78 198.4V84.2C580.78 78.0667 579.646 73.6 577.38 70.8C575.113 68 571.18 66.6 565.58 66.6V62.4C569.713 62.8 573.846 63 577.98 63C586.38 63 593.313 62.0667 598.78 60.2V198.4ZM743.411 72.6C751.278 72.6 757.744 73.7333 762.811 76C767.878 78.1333 773.411 81.3333 779.411 85.6C781.144 86.9333 782.478 87.6 783.411 87.6C785.944 87.6 787.611 83.5333 788.411 75.4H793.011C792.478 84.0667 792.211 99.4 792.211 121.4H787.611C786.411 114.333 785.144 108.533 783.811 104C782.478 99.3333 780.411 95.2667 777.611 91.8C773.744 87 768.678 83.2 762.411 80.4C756.278 77.6 749.811 76.2 743.011 76.2C734.211 76.2 726.478 79.0667 719.811 84.8C713.144 90.5333 708.011 98.7333 704.411 109.4C700.811 119.933 699.011 132.267 699.011 146.4C699.011 170.4 702.811 188 710.411 199.2C718.144 210.267 730.211 215.8 746.611 215.8C754.611 215.8 761.544 213.733 767.411 209.6C769.811 208 771.344 206.467 772.011 205C772.811 203.4 773.211 201.267 773.211 198.6V179.4C773.211 173.8 772.678 169.733 771.611 167.2C770.544 164.667 768.678 162.933 766.011 162C763.344 161.067 759.011 160.467 753.011 160.2V156.2C759.944 156.6 769.344 156.8 781.211 156.8C790.278 156.8 797.211 156.6 802.011 156.2V160.2C798.944 160.467 796.678 161 795.211 161.8C793.878 162.6 792.944 164.133 792.411 166.4C792.011 168.667 791.811 172.333 791.811 177.4V217H787.811C787.678 214.333 787.144 211.8 786.211 209.4C785.278 206.867 784.011 205.6 782.411 205.6C781.611 205.6 780.811 205.8 780.011 206.2C779.211 206.6 777.811 207.533 775.811 209C771.144 212.6 766.278 215.267 761.211 217C756.278 218.867 750.744 219.8 744.611 219.8C730.878 219.8 719.078 217 709.211 211.4C699.478 205.667 692.011 197.467 686.811 186.8C681.611 176.133 679.011 163.4 679.011 148.6C679.011 133.4 681.744 120.067 687.211 108.6C692.811 97 700.478 88.1333 710.211 82C719.944 75.7333 731.011 72.6 743.411 72.6ZM837.436 64C840.903 64 843.903 65.2667 846.436 67.8C848.969 70.3333 850.236 73.3333 850.236 76.8C850.236 80.2667 848.969 83.2667 846.436 85.8C843.903 88.3333 840.903 89.6 837.436 89.6C833.969 89.6 830.969 88.3333 828.436 85.8C825.903 83.2667 824.636 80.2667 824.636 76.8C824.636 73.3333 825.903 70.3333 828.436 67.8C830.969 65.2667 833.969 64 837.436 64ZM847.836 198.4C847.836 203.867 848.969 207.667 851.236 209.8C853.503 211.8 857.436 212.8 863.036 212.8V217C850.769 216.467 842.703 216.2 838.836 216.2C834.969 216.2 826.903 216.467 814.636 217V212.8C820.236 212.8 824.169 211.8 826.436 209.8C828.703 207.667 829.836 203.867 829.836 198.4V135.8C829.836 129.667 828.703 125.2 826.436 122.4C824.169 119.6 820.236 118.2 814.636 118.2V114C818.903 114.4 823.036 114.6 827.036 114.6C835.436 114.6 842.369 113.667 847.836 111.8V198.4ZM940.43 111.2C949.763 111.2 956.83 113.733 961.63 118.8C964.163 121.467 965.963 124.8 967.03 128.8C968.096 132.8 968.63 138.2 968.63 145V198.4C968.63 203.867 969.763 207.667 972.03 209.8C974.296 211.8 978.23 212.8 983.83 212.8V217C971.563 216.467 963.563 216.2 959.83 216.2C956.096 216.2 948.63 216.467 937.43 217V212.8C942.363 212.8 945.763 211.8 947.63 209.8C949.63 207.667 950.63 203.867 950.63 198.4V140.6C950.63 133.133 949.563 127.467 947.43 123.6C945.296 119.6 940.963 117.6 934.43 117.6C928.963 117.6 924.096 119.2 919.83 122.4C915.563 125.6 912.23 130 909.83 135.6C907.563 141.067 906.43 147.2 906.43 154V198.4C906.43 203.867 907.363 207.667 909.23 209.8C911.23 211.8 914.696 212.8 919.63 212.8V217C908.43 216.467 900.963 216.2 897.23 216.2C893.496 216.2 885.496 216.467 873.23 217V212.8C878.83 212.8 882.763 211.8 885.03 209.8C887.296 207.667 888.43 203.867 888.43 198.4V135.8C888.43 129.667 887.296 125.2 885.03 122.4C882.763 119.6 878.83 118.2 873.23 118.2V114C877.496 114.4 881.63 114.6 885.63 114.6C894.03 114.6 900.963 113.667 906.43 111.8V135.4C909.763 126.867 914.363 120.733 920.23 117C926.23 113.133 932.963 111.2 940.43 111.2ZM1059.77 111.2C1069.1 111.2 1076.17 113.733 1080.97 118.8C1083.5 121.467 1085.3 124.8 1086.37 128.8C1087.43 132.8 1087.97 138.2 1087.97 145V198.4C1087.97 203.867 1089.1 207.667 1091.37 209.8C1093.63 211.8 1097.57 212.8 1103.17 212.8V217C1090.9 216.467 1082.9 216.2 1079.17 216.2C1075.43 216.2 1067.97 216.467 1056.77 217V212.8C1061.7 212.8 1065.1 211.8 1066.97 209.8C1068.97 207.667 1069.97 203.867 1069.97 198.4V140.6C1069.97 133.133 1068.9 127.467 1066.77 123.6C1064.63 119.6 1060.3 117.6 1053.77 117.6C1048.3 117.6 1043.43 119.2 1039.17 122.4C1034.9 125.6 1031.57 130 1029.17 135.6C1026.9 141.067 1025.77 147.2 1025.77 154V198.4C1025.77 203.867 1026.7 207.667 1028.57 209.8C1030.57 211.8 1034.03 212.8 1038.97 212.8V217C1027.77 216.467 1020.3 216.2 1016.57 216.2C1012.83 216.2 1004.83 216.467 992.566 217V212.8C998.166 212.8 1002.1 211.8 1004.37 209.8C1006.63 207.667 1007.77 203.867 1007.77 198.4V135.8C1007.77 129.667 1006.63 125.2 1004.37 122.4C1002.1 119.6 998.166 118.2 992.566 118.2V114C996.832 114.4 1000.97 114.6 1004.97 114.6C1013.37 114.6 1020.3 113.667 1025.77 111.8V135.4C1029.1 126.867 1033.7 120.733 1039.57 117C1045.57 113.133 1052.3 111.2 1059.77 111.2Z" fill="#243D38"/>
</svg>
