<svg width="786" height="511" viewBox="0 0 786 511" fill="none" xmlns="http://www.w3.org/2000/svg">
<path d="M72.079 402.824H60.1454L58.236 394.293L54.099 382.601L35.1644 382.443L18.2982 382.601L14.0021 393.661L11.7745 402.824H0L30.5501 324.142H44.2339L72.079 402.824ZM50.7576 372.963L37.5511 335.676H36.5964L22.117 372.963L36.1191 373.121L50.7576 372.963Z" fill="black"/>
<path d="M128.997 361.903C140.772 364.22 146.659 370.435 146.659 380.547C146.659 388.131 143.689 393.819 137.749 397.611C131.808 401.402 123.11 403.298 111.654 403.298C104.759 403.298 98.1291 403.14 91.7645 402.824L92.2419 379.125L91.7645 324.142L116.586 323.984C124.542 323.984 130.695 325.669 135.044 329.04C139.499 332.305 141.727 336.992 141.727 343.101C141.727 347.631 140.613 351.475 138.385 354.635C136.158 357.795 133.028 360.218 128.997 361.903ZM129.156 344.523C129.156 340.626 127.884 337.782 125.338 335.992C122.792 334.201 118.708 333.306 113.086 333.306H103.38L103.221 357.637L117.382 358.111C121.307 357.269 124.224 355.794 126.133 353.687C128.149 351.475 129.156 348.421 129.156 344.523ZM113.086 394.293C119.981 394.293 125.232 393.134 128.838 390.817C132.551 388.394 134.407 384.865 134.407 380.231C134.407 376.439 133.134 373.49 130.589 371.383C128.043 369.276 124.171 367.854 118.973 367.117L103.221 367.275L103.062 378.177L103.38 393.819C106.668 394.135 109.904 394.293 113.086 394.293Z" fill="black"/>
<path d="M179.826 378.177L180.144 402.824H168.37L168.847 379.125L168.37 324.142H180.303L179.826 378.177Z" fill="black"/>
<path d="M241.274 323.352C249.548 323.352 257.875 325.142 266.255 328.724L262.277 340.099H260.845C256.92 337.572 253.314 335.834 250.025 334.886C246.737 333.832 243.183 333.306 239.365 333.306C230.348 333.306 223.559 335.834 218.998 340.889C214.543 345.945 212.315 353.845 212.315 364.589C212.315 374.912 214.384 382.39 218.521 387.025C222.658 391.554 229.234 393.819 238.251 393.819C240.903 393.819 243.449 393.608 245.888 393.187C248.328 392.66 251.298 391.765 254.799 390.501V382.601L254.64 371.383L265.619 370.593V399.033C254.905 402.192 245.623 403.772 237.773 403.772C225.256 403.772 215.763 400.455 209.292 393.819C202.927 387.077 199.745 377.492 199.745 365.063C199.745 351.581 203.352 341.258 210.565 334.096C217.884 326.933 228.121 323.352 241.274 323.352Z" fill="black"/>
<path d="M352.55 402.824H340.616L338.707 394.293L334.57 382.601L315.635 382.443L298.769 382.601L294.473 393.661L292.245 402.824H280.471L311.021 324.142H324.705L352.55 402.824ZM331.229 372.963L318.022 335.676H317.067L302.588 372.963L316.59 373.121L331.229 372.963Z" fill="black"/>
<path d="M383.692 378.177L384.01 402.824H372.235L372.713 379.125L372.235 324.142H384.169L383.692 378.177Z" fill="black"/>
<path d="M456.055 393.977L455.26 402.824H413.094L413.572 379.125L413.094 324.142H425.028L424.551 378.177L424.869 392.871H455.419L456.055 393.977Z" fill="black"/>
<path d="M534.02 323.352C542.294 323.352 550.621 325.142 559.001 328.724L555.024 340.099H553.592C549.667 337.572 546.06 335.834 542.772 334.886C539.483 333.832 535.93 333.306 532.111 333.306C523.095 333.306 516.306 335.834 511.744 340.889C507.289 345.945 505.062 353.845 505.062 364.589C505.062 374.912 507.13 382.39 511.267 387.025C515.404 391.554 521.981 393.819 530.997 393.819C533.649 393.819 536.195 393.608 538.635 393.187C541.075 392.66 544.045 391.765 547.545 390.501V382.601L547.386 371.383L558.365 370.593V399.033C547.651 402.192 538.37 403.772 530.52 403.772C518.003 403.772 508.509 400.455 502.038 393.819C495.674 387.077 492.491 377.492 492.491 365.063C492.491 351.581 496.098 341.258 503.311 334.096C510.631 326.933 520.867 323.352 534.02 323.352Z" fill="black"/>
<path d="M594.861 378.177L595.179 402.824H583.404L583.882 379.125L583.404 324.142H595.338L594.861 378.177Z" fill="black"/>
<path d="M690.296 379.283L690.455 402.824H677.726L636.038 342.785H635.242L635.083 376.597L635.401 402.824H624.582L625.059 379.599L624.741 324.142H637.311L678.999 384.181H680.113L679.794 324.616L690.773 323.826L690.296 379.283Z" fill="black"/>
<path d="M785.081 379.283L785.24 402.824H772.511L730.823 342.785H730.028L729.868 376.597L730.187 402.824H719.367L719.844 379.599L719.526 324.142H732.096L773.784 384.181H774.898L774.58 324.616L785.559 323.826L785.081 379.283Z" fill="black"/>
<path d="M101.514 497.988L101.672 510.441H95.8184L96.0557 498.467L95.9766 493.038L74.54 493.118L74.4609 497.988L74.6191 510.441H68.7656L69.0029 498.467L68.7656 470.686H74.6983L74.54 487.77L85.2188 487.849L95.9766 487.77L95.8184 470.686H101.751L101.514 497.988Z" fill="#808080"/>
<path d="M146.578 510.441H140.646L139.696 506.131L137.64 500.223L128.227 500.143L119.842 500.223L117.706 505.811L116.599 510.441H110.745L125.933 470.686H132.735L146.578 510.441ZM135.979 495.353L129.413 476.514H128.939L121.74 495.353L128.701 495.433L135.979 495.353Z" fill="#808080"/>
<path d="M189.034 498.547L189.113 510.441H182.785L162.06 480.106H161.664L161.585 497.19L161.743 510.441H156.365L156.602 498.706L156.444 470.686H162.693L183.417 501.021H183.971L183.813 470.925L189.271 470.526L189.034 498.547Z" fill="#808080"/>
<path d="M218.911 470.367C224.922 470.367 229.51 471.99 232.674 475.236C235.891 478.483 237.499 483.139 237.499 489.207C237.499 496.178 235.759 501.527 232.279 505.252C228.798 508.978 223.815 510.84 217.328 510.84C215.483 510.84 213.268 510.787 210.684 510.681C208.153 510.628 205.753 510.548 203.486 510.441L203.723 498.467L203.486 470.686L218.911 470.367ZM218.278 505.971C222.496 505.971 225.74 504.694 228.007 502.139C230.328 499.531 231.488 495.62 231.488 490.404C231.488 485.295 230.407 481.516 228.245 479.068C226.082 476.62 222.813 475.396 218.436 475.396C215.852 475.396 212.82 475.502 209.339 475.715L209.181 497.988L209.26 505.492C210.789 505.598 212.398 505.705 214.085 505.811C215.773 505.918 217.17 505.971 218.278 505.971Z" fill="#808080"/>
<path d="M290.213 510.441H284.913L284.043 498.307L281.908 479.946H281.433L270.121 505.971H265.454L254.776 479.946H254.301L252.244 497.828L251.137 510.441H246.075L250.425 470.686H257.307L259.285 476.673L267.907 498.068H268.381L277.399 476.354L279.455 470.686H286.179L290.213 510.441Z" fill="#808080"/>
<path d="M332.977 510.441H327.044L326.095 506.131L324.039 500.223L314.625 500.143L306.241 500.223L304.105 505.811L302.997 510.441H297.144L312.331 470.686H319.134L332.977 510.441ZM322.377 495.353L315.812 476.514H315.337L308.139 495.353L315.1 495.433L322.377 495.353Z" fill="#808080"/>
<path d="M358.188 470.367C364.2 470.367 368.788 471.99 371.952 475.236C375.169 478.483 376.777 483.139 376.777 489.207C376.777 496.178 375.037 501.527 371.556 505.252C368.076 508.978 363.092 510.84 356.606 510.84C354.76 510.84 352.546 510.787 349.962 510.681C347.43 510.628 345.031 510.548 342.763 510.441L343.001 498.467L342.763 470.686L358.188 470.367ZM357.555 505.971C361.774 505.971 365.017 504.694 367.285 502.139C369.605 499.531 370.765 495.62 370.765 490.404C370.765 485.295 369.684 481.516 367.522 479.068C365.36 476.62 362.091 475.396 357.714 475.396C355.13 475.396 352.097 475.502 348.617 475.715L348.459 497.988L348.538 505.492C350.067 505.598 351.675 505.705 353.363 505.811C355.05 505.918 356.448 505.971 357.555 505.971Z" fill="#808080"/>
<path d="M411.614 505.332L412.089 505.811L411.535 510.441H387.567L387.804 498.467L387.567 470.686H411.693L412.089 471.165L411.614 475.795L401.647 475.476L393.421 475.556L393.341 487.61L401.173 487.69L408.054 487.45L408.45 488.009L407.975 492.719L400.698 492.48L393.341 492.559L393.262 497.988L393.341 505.572L401.093 505.652L411.614 505.332Z" fill="#808080"/>
<path d="M450.343 470.287C454.72 470.287 458.517 471.218 461.734 473.081L460.626 478.589L459.914 478.829C458.596 477.711 457.067 476.833 455.326 476.194C453.586 475.556 451.714 475.236 449.71 475.236C445.808 475.236 442.828 476.514 440.772 479.068C438.715 481.569 437.687 485.322 437.687 490.324C437.687 495.38 438.715 499.239 440.772 501.9C442.828 504.561 445.808 505.891 449.71 505.891C451.609 505.891 453.507 505.572 455.405 504.933C457.357 504.241 459.097 503.336 460.626 502.219L461.338 502.458L460.784 507.967C457.198 509.936 453.428 510.92 449.473 510.92C443.672 510.92 439.216 509.191 436.105 505.731C432.993 502.219 431.438 497.243 431.438 490.803C431.438 484.257 433.072 479.201 436.342 475.635C439.664 472.07 444.331 470.287 450.343 470.287Z" fill="#808080"/>
<path d="M492.657 505.971L492.262 510.441H471.3L471.537 498.467L471.3 470.686H477.233L476.995 497.988L477.153 505.412H492.341L492.657 505.971Z" fill="#808080"/>
<path d="M513.999 470.207C519.747 470.207 524.15 471.91 527.209 475.316C530.32 478.722 531.876 483.539 531.876 489.765C531.876 496.524 530.215 501.766 526.892 505.492C523.623 509.164 518.929 511 512.812 511C507.117 511 502.714 509.27 499.602 505.811C496.491 502.299 494.935 497.323 494.935 490.883C494.935 484.284 496.596 479.201 499.919 475.635C503.241 472.017 507.934 470.207 513.999 470.207ZM513.445 475.236C509.279 475.236 506.168 476.434 504.111 478.829C502.107 481.224 501.105 485.002 501.105 490.165C501.105 495.699 502.107 499.718 504.111 502.219C506.115 504.72 509.174 505.971 513.287 505.971C517.506 505.971 520.643 504.747 522.7 502.299C524.757 499.851 525.785 496.019 525.785 490.803C525.785 485.428 524.757 481.49 522.7 478.988C520.696 476.487 517.611 475.236 513.445 475.236Z" fill="#808080"/>
<path d="M564.276 471.165L563.88 476.194L556.524 475.635H552.569L552.332 497.988L552.569 510.441H546.636L546.874 498.467L546.715 475.635H542.76L535.246 476.194L534.771 475.635L535.246 470.686H563.959L564.276 471.165Z" fill="#808080"/>
<path d="M606.637 497.988L606.795 510.441H600.941L601.179 498.467L601.1 493.038L579.663 493.118L579.584 497.988L579.742 510.441H573.889L574.126 498.467L573.889 470.686H579.821L579.663 487.77L590.342 487.849L601.1 487.77L600.941 470.686H606.874L606.637 497.988Z" fill="#808080"/>
<path d="M626.705 497.988L626.863 510.441H621.01L621.247 498.467L621.01 470.686H626.942L626.705 497.988Z" fill="#808080"/>
<path d="M674.149 498.547L674.229 510.441H667.9L647.176 480.106H646.78L646.701 497.19L646.859 510.441H641.48L641.718 498.706L641.559 470.686H647.809L668.533 501.021H669.087L668.929 470.925L674.387 470.526L674.149 498.547Z" fill="#808080"/>
<path d="M704.374 470.287C708.488 470.287 712.627 471.192 716.793 473.001L714.816 478.749H714.104C712.153 477.472 710.36 476.593 708.725 476.114C707.09 475.582 705.323 475.316 703.425 475.316C698.943 475.316 695.568 476.593 693.3 479.148C691.085 481.703 689.978 485.694 689.978 491.122C689.978 496.338 691.006 500.117 693.063 502.458C695.119 504.747 698.389 505.891 702.871 505.891C704.19 505.891 705.455 505.785 706.668 505.572C707.881 505.306 709.358 504.853 711.098 504.215V500.223L711.019 494.555L716.477 494.156V508.525C711.151 510.122 706.536 510.92 702.634 510.92C696.411 510.92 691.692 509.244 688.475 505.891C685.311 502.485 683.729 497.642 683.729 491.362C683.729 484.55 685.522 479.334 689.108 475.715C692.746 472.096 697.835 470.287 704.374 470.287Z" fill="#808080"/>
<path d="M392.779 257.752C463.403 257.752 520.655 200.5 520.655 129.876C520.655 59.252 463.403 2 392.779 2C322.156 2 264.904 59.252 264.904 129.876C264.904 200.5 322.156 257.752 392.779 257.752Z" fill="#E9A284" stroke="#123630" stroke-width="4"/>
<path d="M469.704 81.7012C469.704 65.8485 456.807 52.9517 440.954 52.9517C429.341 52.9517 418.885 59.978 414.436 70.5914C407.518 68.4955 400.236 67.4041 392.78 67.4041C385.323 67.4041 378.041 68.4955 371.123 70.5917C366.675 59.978 356.218 52.9517 344.605 52.9517C328.752 52.9517 315.855 65.8485 315.855 81.7012C315.855 91.2431 320.642 100.176 328.474 105.498C323.375 115.168 320.673 125.933 320.673 137.102C320.673 155.734 328.183 173.247 341.821 186.414C355.437 199.56 373.534 206.8 392.78 206.8C412.025 206.8 430.123 199.56 443.739 186.414C457.376 173.247 464.886 155.734 464.886 137.102C464.886 125.933 462.185 115.168 457.085 105.498C464.917 100.176 469.704 91.2434 469.704 81.7012ZM440.954 57.459C454.321 57.459 465.196 68.3341 465.196 81.7012C465.196 89.6292 461.277 97.0578 454.843 101.569C453.951 100.118 453.001 98.6954 451.995 97.3042C457.024 93.7453 460.069 87.9546 460.069 81.7012C460.069 79.1219 459.563 76.6182 458.566 74.2603C458.081 73.114 456.759 72.5773 455.612 73.0626C454.466 73.5476 453.93 74.87 454.414 76.0163C455.176 77.8157 455.561 79.7285 455.561 81.7012C455.561 86.5444 453.172 91.0256 449.235 93.7362C447.531 91.6716 445.7 89.6848 443.739 87.7905C438.854 83.0744 433.39 79.1231 427.506 75.9887C429.778 70.6199 435.032 67.094 440.954 67.094C443.579 67.094 446.152 67.7975 448.395 69.128C449.466 69.7639 450.848 69.4102 451.483 68.3396C452.118 67.2692 451.765 65.8864 450.694 65.2515C447.756 63.5081 444.388 62.5865 440.954 62.5865C433.294 62.5865 426.489 67.0977 423.462 73.9893C421.906 73.2813 420.324 72.6275 418.72 72.0304C422.541 63.2502 431.271 57.459 440.954 57.459ZM320.363 81.7012C320.363 68.3341 331.238 57.459 344.605 57.459C354.288 57.459 363.018 63.2502 366.839 72.0307C365.235 72.6278 363.654 73.2816 362.098 73.9896C359.07 67.0977 352.266 62.5868 344.605 62.5868C334.065 62.5868 325.49 71.1617 325.49 81.7015C325.49 87.9549 328.535 93.7456 333.564 97.3045C332.559 98.6957 331.609 100.118 330.716 101.569C324.282 97.0581 320.363 89.6292 320.363 81.7012ZM358.054 75.9884C352.169 79.1228 346.706 83.0741 341.821 87.7902C339.859 89.6848 338.028 91.6716 336.324 93.7362C332.387 91.0259 329.998 86.5447 329.998 81.7012C329.998 73.6467 336.551 67.0937 344.605 67.0937C350.528 67.0937 355.781 70.6196 358.054 75.9884ZM460.379 137.102C460.379 154.5 453.357 170.861 440.608 183.171C427.837 195.502 410.851 202.293 392.78 202.293C374.708 202.293 357.723 195.502 344.951 183.171C332.202 170.861 325.18 154.5 325.18 137.102C325.18 119.704 332.202 103.343 344.951 91.0328C357.723 78.7021 374.708 71.9114 392.78 71.9114C410.851 71.9114 427.837 78.7024 440.608 91.0331C453.357 103.343 460.379 119.704 460.379 137.102Z" fill="#123630"/>
<path fill-rule="evenodd" clip-rule="evenodd" d="M438.687 124.588C435.487 121.278 426.927 115.243 418.286 117.58C407.486 120.5 405.086 133.932 405.686 135.1C405.787 135.297 405.82 135.675 405.868 136.224C406.105 138.938 406.706 145.825 417.686 155.541C430.887 167.222 442.287 153.789 444.087 148.533C445.887 143.277 446.487 131.596 438.687 124.588ZM426.657 134.693C426.657 133.449 427.666 132.44 428.911 132.44C430.155 132.44 431.164 133.449 431.164 134.693V137.102C431.164 142.329 426.912 146.582 421.685 146.582C416.457 146.582 412.205 142.329 412.205 137.102V134.693C412.205 129.466 416.457 125.214 421.685 125.214C422.929 125.214 423.938 126.223 423.938 127.467C423.938 128.712 422.929 129.721 421.685 129.721C418.943 129.721 416.712 131.952 416.712 134.693V137.102C416.712 139.844 418.943 142.075 421.685 142.075C424.427 142.075 426.657 139.844 426.657 137.102V134.693Z" fill="#123630"/>
<path d="M418.286 117.58L418.417 118.062L418.417 118.062L418.286 117.58ZM438.687 124.588L438.327 124.935L438.34 124.948L438.353 124.96L438.687 124.588ZM405.686 135.1L406.131 134.872L406.131 134.872L405.686 135.1ZM405.868 136.224L406.366 136.18L406.366 136.18L405.868 136.224ZM417.686 155.541L417.355 155.916L417.355 155.916L417.686 155.541ZM444.087 148.533L443.614 148.371L443.614 148.371L444.087 148.533ZM418.417 118.062C422.588 116.934 426.765 117.821 430.321 119.422C433.878 121.024 436.767 123.322 438.327 124.935L439.046 124.24C437.407 122.545 434.415 120.17 430.732 118.511C427.048 116.851 422.625 115.889 418.156 117.097L418.417 118.062ZM406.131 134.872C406.141 134.891 406.12 134.854 406.109 134.704C406.098 134.571 406.098 134.39 406.111 134.162C406.139 133.707 406.221 133.1 406.372 132.383C406.674 130.951 407.243 129.11 408.161 127.215C410.001 123.419 413.208 119.47 418.417 118.062L418.156 117.097C412.564 118.609 409.172 122.837 407.261 126.779C406.304 128.753 405.711 130.672 405.394 132.177C405.235 132.93 405.144 133.587 405.113 134.102C405.098 134.358 405.096 134.588 405.112 134.782C405.125 134.959 405.156 135.163 405.241 135.329L406.131 134.872ZM406.366 136.18C406.342 135.911 406.321 135.663 406.292 135.459C406.264 135.265 406.222 135.05 406.131 134.872L405.241 135.329C405.251 135.347 405.276 135.419 405.302 135.601C405.326 135.772 405.345 135.988 405.37 136.267L406.366 136.18ZM418.018 155.167C412.568 150.345 409.719 146.246 408.2 143.043C406.685 139.846 406.482 137.514 406.366 136.18L405.37 136.267C405.49 137.648 405.707 140.117 407.297 143.471C408.883 146.818 411.824 151.022 417.355 155.916L418.018 155.167ZM443.614 148.371C443.189 149.61 442.177 151.382 440.676 153.166C439.179 154.945 437.22 156.707 434.924 157.948C432.631 159.188 430.012 159.905 427.178 159.616C424.346 159.327 421.253 158.03 418.018 155.167L417.355 155.916C420.719 158.893 424.002 160.297 427.076 160.61C430.149 160.924 432.967 160.143 435.4 158.828C437.829 157.514 439.882 155.663 441.441 153.81C442.997 151.961 444.084 150.083 444.56 148.695L443.614 148.371ZM438.353 124.96C442.14 128.363 443.902 132.912 444.491 137.284C445.081 141.662 444.488 145.817 443.614 148.371L444.56 148.695C445.485 145.992 446.093 141.679 445.482 137.151C444.871 132.616 443.033 127.821 439.021 124.216L438.353 124.96ZM428.911 131.94C427.39 131.94 426.157 133.173 426.157 134.693H427.157C427.157 133.725 427.942 132.94 428.911 132.94V131.94ZM431.664 134.693C431.664 133.173 430.432 131.94 428.911 131.94V132.94C429.879 132.94 430.664 133.725 430.664 134.693H431.664ZM431.664 137.102V134.693H430.664V137.102H431.664ZM421.685 147.082C427.188 147.082 431.664 142.606 431.664 137.102H430.664C430.664 142.053 426.636 146.082 421.685 146.082V147.082ZM411.705 137.102C411.705 142.606 416.181 147.082 421.685 147.082V146.082C416.734 146.082 412.705 142.053 412.705 137.102H411.705ZM411.705 134.693V137.102H412.705V134.693H411.705ZM421.685 124.714C416.181 124.714 411.705 129.19 411.705 134.693H412.705C412.705 129.742 416.734 125.714 421.685 125.714V124.714ZM424.438 127.467C424.438 125.947 423.205 124.714 421.685 124.714V125.714C422.653 125.714 423.438 126.499 423.438 127.467H424.438ZM421.685 130.221C423.205 130.221 424.438 128.988 424.438 127.467H423.438C423.438 128.436 422.653 129.221 421.685 129.221V130.221ZM417.212 134.693C417.212 132.228 419.219 130.221 421.685 130.221V129.221C418.667 129.221 416.212 131.675 416.212 134.693H417.212ZM417.212 137.102V134.693H416.212V137.102H417.212ZM421.685 141.575C419.219 141.575 417.212 139.568 417.212 137.102H416.212C416.212 140.12 418.667 142.575 421.685 142.575V141.575ZM426.157 137.102C426.157 139.568 424.151 141.575 421.685 141.575V142.575C424.703 142.575 427.157 140.12 427.157 137.102H426.157ZM426.157 134.693V137.102H427.157V134.693H426.157Z" fill="#123630"/>
<path fill-rule="evenodd" clip-rule="evenodd" d="M347.907 124.632C351.016 121.33 359.33 115.308 367.721 117.639C378.211 120.553 380.542 133.956 379.959 135.122C379.861 135.318 379.829 135.695 379.783 136.243C379.552 138.951 378.968 145.823 368.304 155.518C355.483 167.173 344.411 153.77 342.663 148.525C340.914 143.28 340.332 131.625 347.907 124.632ZM357.66 133.528C357.66 132.283 356.651 131.274 355.406 131.274C354.162 131.274 353.153 132.283 353.153 133.528V135.937C353.153 141.164 357.405 145.416 362.632 145.416C367.86 145.416 372.112 141.164 372.112 135.937V133.528C372.112 128.301 367.86 124.048 362.632 124.048C361.388 124.048 360.379 125.057 360.379 126.302C360.379 127.547 361.388 128.556 362.632 128.556C365.374 128.556 367.605 130.786 367.605 133.528V135.937C367.605 138.679 365.374 140.909 362.632 140.909C359.89 140.909 357.66 138.679 357.66 135.937V133.528Z" fill="#123630"/>
<path d="M367.721 117.639L367.855 117.157L367.855 117.157L367.721 117.639ZM347.907 124.632L348.247 125L348.26 124.988L348.272 124.975L347.907 124.632ZM379.959 135.122L380.406 135.345L380.406 135.345L379.959 135.122ZM379.783 136.243L379.284 136.2L379.284 136.2L379.783 136.243ZM368.304 155.518L368.64 155.888L368.64 155.888L368.304 155.518ZM342.663 148.525L342.188 148.683L342.663 148.525ZM367.855 117.157C363.506 115.949 359.204 116.912 355.623 118.569C352.043 120.226 349.136 122.597 347.543 124.289L348.272 124.975C349.787 123.365 352.591 121.074 356.043 119.477C359.494 117.88 363.544 116.998 367.587 118.121L367.855 117.157ZM380.406 135.345C380.488 135.181 380.518 134.979 380.532 134.803C380.546 134.611 380.545 134.382 380.53 134.126C380.5 133.613 380.412 132.958 380.258 132.208C379.95 130.706 379.374 128.792 378.445 126.823C376.59 122.892 373.294 118.668 367.855 117.157L367.587 118.121C372.638 119.524 375.752 123.459 377.54 127.249C378.432 129.141 378.985 130.978 379.278 132.408C379.425 133.124 379.505 133.73 379.532 134.185C379.545 134.412 379.545 134.594 379.535 134.727C379.523 134.877 379.503 134.916 379.512 134.898L380.406 135.345ZM380.281 136.285C380.304 136.006 380.323 135.79 380.347 135.619C380.372 135.438 380.397 135.365 380.406 135.345L379.512 134.898C379.424 135.075 379.383 135.288 379.356 135.481C379.328 135.685 379.307 135.931 379.284 136.2L380.281 136.285ZM368.64 155.888C374.013 151.004 376.87 146.81 378.41 143.47C379.954 140.124 380.164 137.662 380.281 136.285L379.284 136.2C379.171 137.532 378.974 139.86 377.502 143.051C376.027 146.249 373.259 150.338 367.968 155.148L368.64 155.888ZM342.188 148.683C342.65 150.068 343.706 151.942 345.217 153.786C346.732 155.635 348.727 157.484 351.088 158.796C353.453 160.11 356.196 160.891 359.187 160.577C362.18 160.264 365.372 158.86 368.64 155.888L367.968 155.148C364.826 158.004 361.826 159.295 359.083 159.583C356.337 159.871 353.798 159.158 351.574 157.922C349.346 156.685 347.444 154.928 345.991 153.153C344.533 151.373 343.55 149.605 343.137 148.367L342.188 148.683ZM347.568 124.265C343.67 127.863 341.886 132.648 341.293 137.169C340.7 141.686 341.29 145.988 342.188 148.683L343.137 148.367C342.287 145.818 341.711 141.669 342.284 137.299C342.857 132.934 344.569 128.394 348.247 125L347.568 124.265ZM355.406 131.774C356.375 131.774 357.16 132.56 357.16 133.528H358.16C358.16 132.007 356.927 130.774 355.406 130.774V131.774ZM353.653 133.528C353.653 132.56 354.438 131.774 355.406 131.774V130.774C353.886 130.774 352.653 132.007 352.653 133.528H353.653ZM353.653 135.937V133.528H352.653V135.937H353.653ZM362.632 144.916C357.681 144.916 353.653 140.888 353.653 135.937H352.653C352.653 141.44 357.129 145.916 362.632 145.916V144.916ZM371.612 135.937C371.612 140.888 367.583 144.916 362.632 144.916V145.916C368.136 145.916 372.612 141.44 372.612 135.937H371.612ZM371.612 133.528V135.937H372.612V133.528H371.612ZM362.632 124.548C367.583 124.548 371.612 128.577 371.612 133.528H372.612C372.612 128.025 368.136 123.548 362.632 123.548V124.548ZM360.879 126.302C360.879 125.334 361.664 124.548 362.632 124.548V123.548C361.112 123.548 359.879 124.781 359.879 126.302H360.879ZM362.632 128.056C361.664 128.056 360.879 127.27 360.879 126.302H359.879C359.879 127.823 361.112 129.056 362.632 129.056V128.056ZM368.105 133.528C368.105 130.51 365.65 128.056 362.632 128.056V129.056C365.098 129.056 367.105 131.062 367.105 133.528H368.105ZM368.105 135.937V133.528H367.105V135.937H368.105ZM362.632 141.409C365.65 141.409 368.105 138.955 368.105 135.937H367.105C367.105 138.403 365.098 140.409 362.632 140.409V141.409ZM357.16 135.937C357.16 138.955 359.614 141.409 362.632 141.409V140.409C360.167 140.409 358.16 138.403 358.16 135.937H357.16ZM357.16 133.528V135.937H358.16V133.528H357.16Z" fill="#123630"/>
<path d="M445.925 127.305C442.441 121.27 437.149 116.743 431.024 114.556C424.769 112.322 418.397 112.782 413.081 115.851C407.766 118.92 404.181 124.209 402.988 130.743C401.82 137.141 403.095 143.987 406.579 150.021C411.741 158.962 420.678 164.144 429.311 164.144C432.823 164.144 436.285 163.287 439.422 161.475C450.27 155.213 453.187 139.884 445.925 127.305ZM437.169 157.571C428.473 162.591 416.502 158.193 410.482 147.767C407.532 142.658 406.445 136.899 407.422 131.552C408.373 126.341 411.184 122.151 415.335 119.754C417.731 118.371 420.421 117.673 423.228 117.673C425.282 117.673 427.4 118.047 429.508 118.8C434.627 120.628 439.071 124.449 442.021 129.558C448.041 139.985 445.864 152.551 437.169 157.571Z" fill="#123630"/>
<path d="M340.83 126.538C344.314 120.503 349.606 115.976 355.73 113.789C361.985 111.555 368.358 112.015 373.673 115.084C378.989 118.153 382.574 123.442 383.767 129.976C384.935 136.374 383.66 143.22 380.176 149.254C375.014 158.195 366.077 163.377 357.444 163.377C353.932 163.377 350.469 162.52 347.332 160.708C336.485 154.446 333.568 139.117 340.83 126.538ZM349.586 156.804C358.282 161.824 370.253 157.426 376.272 147C379.222 141.891 380.309 136.132 379.333 130.785C378.381 125.574 375.571 121.384 371.42 118.987C369.023 117.604 366.333 116.906 363.527 116.906C361.472 116.906 359.355 117.28 357.246 118.033C352.127 119.861 347.684 123.682 344.733 128.791C338.714 139.218 340.891 151.784 349.586 156.804Z" fill="#123630"/>
<path d="M416.667 172.791C416.424 171.571 415.237 170.78 414.016 171.023C412.796 171.267 412.004 172.455 412.248 173.675C412.252 173.693 412.535 175.482 411.164 176.949C409.127 179.13 404.299 179.849 397.57 178.975C396.727 178.866 395.881 178.788 395.033 178.736V175.303C397.835 174.855 400.526 173.584 402.781 171.607C405.471 169.25 407.077 166.256 407.077 163.598C407.077 158.283 400.796 154.119 392.779 154.119C384.762 154.119 378.482 158.283 378.482 163.598C378.482 166.256 380.088 169.25 382.778 171.607C385.033 173.583 387.723 174.855 390.525 175.303V178.736C389.678 178.788 388.831 178.866 387.988 178.975C381.259 179.849 376.431 179.13 374.394 176.949C373.024 175.482 373.307 173.693 373.31 173.675C373.554 172.455 372.763 171.267 371.542 171.023C370.322 170.78 369.134 171.571 368.89 172.791C368.593 174.28 368.723 177.48 371.1 180.026C371.556 180.513 372.075 180.949 372.646 181.343C373.246 190.152 382.045 197.165 392.779 197.165C403.513 197.165 412.312 190.152 412.912 181.343C413.482 180.949 414.002 180.513 414.458 180.026C416.835 177.48 416.965 174.28 416.667 172.791ZM382.99 163.598C382.99 160.752 388.158 158.626 392.78 158.626C397.401 158.626 402.57 160.752 402.57 163.598C402.57 166.125 398.436 170.979 392.78 170.979C387.124 170.979 382.99 166.125 382.99 163.598ZM392.78 192.658C385.449 192.658 379.281 188.689 377.583 183.35C380.55 183.974 384.215 184.011 388.57 183.445C389.966 183.264 391.373 183.173 392.78 183.173C394.186 183.173 395.593 183.264 396.99 183.445C401.344 184.011 405.01 183.974 407.976 183.35C406.279 188.689 400.111 192.658 392.78 192.658Z" fill="#123630"/>
</svg>
