<svg width="53" height="64" viewBox="0 0 53 64" fill="none" xmlns="http://www.w3.org/2000/svg">
<path d="M24.9054 28.3574C25.5996 30.1498 26.5976 31.0749 27.8993 31.1327V32C26.7422 31.9133 25.1947 31.8699 23.2566 31.8699C20.769 31.8699 18.9177 31.9133 17.7028 32V31.1327C18.802 31.0749 19.583 30.9448 20.0458 30.7424C20.5375 30.5111 20.7834 30.1064 20.7834 29.5282C20.7834 29.0367 20.6099 28.3574 20.2628 27.4901L17.616 20.3782H7.11583L5.33687 24.9749C4.75835 26.536 4.46909 27.7213 4.46909 28.5308C4.46909 29.427 4.77281 30.0775 5.38026 30.4822C6.01663 30.887 6.9712 31.1038 8.24395 31.1327V32C6.59516 31.9133 4.9319 31.8699 3.25419 31.8699C1.95251 31.8699 0.867784 31.9133 0 32V31.1327C1.44631 30.7858 2.58889 29.5282 3.42775 27.36L13.6242 1.08092H14.3184L24.9054 28.3574ZM17.2689 19.511L12.4093 6.54488L7.46294 19.511H17.2689Z" fill="white" fill-opacity="0.2"/>
<path d="M40.287 1.41885e-06C41.9936 1.41885e-06 43.3965 0.245735 44.4957 0.737203C45.5949 1.19976 46.7953 1.8936 48.097 2.81871C48.4731 3.10781 48.7623 3.25236 48.9648 3.25236C49.5144 3.25236 49.876 2.37061 50.0495 0.607111H51.0475C50.9318 2.48625 50.8739 5.81088 50.8739 10.581H49.876C49.6156 9.04878 49.3408 7.79121 49.0516 6.80827C48.7623 5.79643 48.314 4.91468 47.7065 4.16302C46.8677 3.12226 45.7685 2.29833 44.4089 1.69123C43.0783 1.08412 41.6754 0.780567 40.2002 0.780567C38.2911 0.780567 36.6133 1.40213 35.167 2.64525C33.7207 3.88838 32.6071 5.66633 31.8261 7.97912C31.0451 10.263 30.6546 12.9372 30.6546 16.0016C30.6546 21.2054 31.479 25.0215 33.1277 27.4499C34.8055 29.8494 37.4233 31.0492 40.9812 31.0492C42.7168 31.0492 44.2209 30.6011 45.4937 29.7049C46.0143 29.3579 46.347 29.0255 46.4916 28.7075C46.6652 28.3606 46.752 27.898 46.752 27.3198V23.1568C46.752 21.9426 46.6362 21.0608 46.4048 20.5115C46.1734 19.9622 45.7685 19.5864 45.1899 19.3841C44.6114 19.1817 43.6713 19.0516 42.3696 18.9938V18.1265C43.8738 18.2132 45.9131 18.2566 48.4875 18.2566C50.4545 18.2566 51.9587 18.2132 53 18.1265V18.9938C52.3347 19.0516 51.8429 19.1672 51.5248 19.3407C51.2355 19.5141 51.033 19.8466 50.9173 20.3381C50.8305 20.8295 50.7871 21.6246 50.7871 22.7231V31.9165H49.908C49.8791 31.3383 49.7747 30.1819 49.5723 29.6615C49.3698 29.1122 49.095 28.8376 48.7479 28.8376C48.5743 28.8376 48.4007 28.8809 48.2272 28.9677C48.0536 29.0544 47.7499 29.2568 47.316 29.5748C46.3036 30.3553 45.2478 30.9335 44.1486 31.3094C43.0783 31.7141 41.8779 31.9165 40.5473 31.9165C37.5679 31.9165 35.0079 31.3094 32.8674 30.0951C30.7558 28.852 29.1359 27.0741 28.0078 24.7613C26.8797 22.4485 26.3156 19.6876 26.3156 16.4786C26.3156 13.1829 26.9086 10.2919 28.0946 7.80566C29.3095 5.2905 30.9727 3.368 33.0844 2.03815C35.196 0.679383 37.5968 1.41885e-06 40.287 1.41885e-06Z" fill="white" fill-opacity="0.2"/>
<path d="M24.9054 35.6426C25.5996 33.8502 26.5976 32.9251 27.8993 32.8673V32C26.7422 32.0867 25.1947 32.1301 23.2566 32.1301C20.769 32.1301 18.9177 32.0867 17.7028 32V32.8673C18.802 32.9251 19.583 33.0552 20.0458 33.2576C20.5375 33.4889 20.7834 33.8936 20.7834 34.4718C20.7834 34.9633 20.6099 35.6426 20.2628 36.5099L17.616 43.6218H7.11583L5.33687 39.0251C4.75835 37.464 4.46909 36.2787 4.46909 35.4692C4.46909 34.573 4.77281 33.9225 5.38026 33.5178C6.01663 33.113 6.9712 32.8962 8.24395 32.8673V32C6.59516 32.0867 4.9319 32.1301 3.25419 32.1301C1.95251 32.1301 0.867784 32.0867 0 32V32.8673C1.44631 33.2142 2.58889 34.4718 3.42775 36.64L13.6242 62.9191H14.3184L24.9054 35.6426ZM17.2689 44.489L12.4093 57.4551L7.46294 44.489H17.2689Z" fill="white" fill-opacity="0.2"/>
<path d="M40.287 64C41.9936 64 43.3965 63.7543 44.4957 63.2628C45.5949 62.8002 46.7953 62.1064 48.097 61.1813C48.4731 60.8922 48.7623 60.7476 48.9648 60.7476C49.5144 60.7476 49.876 61.6294 50.0495 63.3929H51.0475C50.9318 61.5137 50.8739 58.1891 50.8739 53.419H49.876C49.6156 54.9512 49.3408 56.2088 49.0516 57.1917C48.7623 58.2036 48.314 59.0853 47.7065 59.837C46.8677 60.8777 45.7685 61.7017 44.4089 62.3088C43.0783 62.9159 41.6754 63.2194 40.2002 63.2194C38.2911 63.2194 36.6133 62.5979 35.167 61.3547C33.7207 60.1116 32.6071 58.3337 31.8261 56.0209C31.0451 53.737 30.6546 51.0628 30.6546 47.9984C30.6546 42.7946 31.479 38.9785 33.1277 36.5501C34.8055 34.1506 37.4233 32.9508 40.9812 32.9508C42.7168 32.9508 44.2209 33.3989 45.4937 34.2951C46.0143 34.6421 46.347 34.9745 46.4916 35.2925C46.6652 35.6394 46.752 36.102 46.752 36.6802V40.8432C46.752 42.0574 46.6362 42.9392 46.4048 43.4885C46.1734 44.0378 45.7685 44.4136 45.1899 44.6159C44.6114 44.8183 43.6713 44.9484 42.3696 45.0062V45.8735C43.8738 45.7868 45.9131 45.7434 48.4875 45.7434C50.4545 45.7434 51.9587 45.7868 53 45.8735V45.0062C52.3347 44.9484 51.8429 44.8328 51.5248 44.6593C51.2355 44.4859 51.033 44.1534 50.9173 43.6619C50.8305 43.1705 50.7871 42.3754 50.7871 41.2769V32.0835H49.908C49.8791 32.6617 49.7747 33.8181 49.5723 34.3385C49.3698 34.8878 49.095 35.1624 48.7479 35.1624C48.5743 35.1624 48.4007 35.1191 48.2272 35.0323C48.0536 34.9456 47.7499 34.7432 47.316 34.4252C46.3036 33.6447 45.2478 33.0665 44.1486 32.6906C43.0783 32.2859 41.8779 32.0835 40.5473 32.0835C37.5679 32.0835 35.0079 32.6906 32.8674 33.9049C30.7558 35.148 29.1359 36.9259 28.0078 39.2387C26.8797 41.5515 26.3156 44.3124 26.3156 47.5214C26.3156 50.8171 26.9086 53.7081 28.0946 56.1943C29.3095 58.7095 30.9727 60.632 33.0844 61.9619C35.196 63.3206 37.5968 64 40.287 64Z" fill="white" fill-opacity="0.2"/>
</svg>
